PathFileType	4	(X/Y/Z)	Kaydara																																																																																																																									
DataRate	CameraRate	NumFrames	NumMarkers	Units	OrigDataRate	OrigDataStartFrame	OrigNumFrames																																																																																																																					
30	30	5	41	mm	30	105	167																																																																																																																					
Frame#	Time	PAIB_LFHD			PAIB_RFHD			PAIB_LBHD			PAIB_RBHD			PAIB_LFTShould			PAIB_RFTShould			PAIB_LRRShould			PAIB_RRRShould			PAIB_T10			PAIB_STRN			PAIB_TRUN			PAIB_LSHO			PAIB_LUPA			PAIB_LELB			PAIB_LFRM			PAIB_LWRA			PAIB_LWRB			PAIB_LFIN			PAIB_RSHO			PAIB_RUPA			PAIB_RELB			PAIB_RFRM			PAIB_RWRA			PAIB_RWRB			PAIB_RFIN			PAIB_LFWT			PAIB_RFWT			PAIB_LBWT			PAIB_RBWT			PAIB_LTHI			PAIB_LKNE			PAIB_LSHN			PAIB_LANK			PAIB_LHEE			PAIB_LTOE			PAIB_RTHI			PAIB_RKNE			PAIB_RSHN			PAIB_RANK			PAIB_RHEE			PAIB_RTOE		
		X1	Y1	Z1	X2	Y2	Z2	X3	Y3	Z3	X4	Y4	Z4	X5	Y5	Z5	X6	Y6	Z6	X7	Y7	Z7	X8	Y8	Z8	X9	Y9	Z9	X10	Y10	Z10	X11	Y11	Z11	X12	Y12	Z12	X13	Y13	Z13	X14	Y14	Z14	X15	Y15	Z15	X16	Y16	Z16	X17	Y17	Z17	X18	Y18	Z18	X19	Y19	Z19	X20	Y20	Z20	X21	Y21	Z21	X22	Y22	Z22	X23	Y23	Z23	X24	Y24	Z24	X25	Y25	Z25	X26	Y26	Z26	X27	Y27	Z27	X28	Y28	Z28	X29	Y29	Z29	X30	Y30	Z30	X31	Y31	Z31	X32	Y32	Z32	X33	Y33	Z33	X34	Y34	Z34	X35	Y35	Z35	X36	Y36	Z36	X37	Y37	Z37	X38	Y38	Z38	X39	Y39	Z39	X40	Y40	Z40	X41	Y41	Z41
																																																																																																																												
105	3.477	289.42904	1666.67603	-125.2584	104.86097	1669.17831	-134.18583	302.65333	1631.24298	-248.98932	99.79926	1646.22986	-247.6103	260.83347	1397.0816	-129.44425	138.40285	1394.9176	-126.86197	265.90544	1463.88901	-272.62405	111.8386	1464.56116	-260.53305	182.2769	1308.64471	-354.20769	207.77239	1329.32129	-93.21202	205.99043	1226.96465	-74.81467	388.56842	1407.53082	-213.2839	440.84187	1180.84106	-240.88919	453.92307	1101.89415	-291.15864	480.15385	985.73959	-263.50508	435.97275	861.49826	-179.65004	466.42841	851.15227	-253.87884	486.42143	809.2482	-197.29391	9.20541	1399.17496	-177.45424	-60.14763	1226.77628	-206.51787	-84.10311	1109.67117	-205.68054	-95.76822	977.40936	-156.38026	-21.96041	887.36458	-52.7599	-94.88791	866.5155	-91.74891	-78.32489	840.88303	-23.22539	304.93608	952.48856	-128.26862	70.99158	937.99873	-128.92775	246.00216	991.62956	-347.75192	101.23686	982.56271	-346.34262	294.78682	708.19862	-300.58708	306.83014	487.26021	-139.17144	275.27599	291.86602	-119.51216	267.76785	102.3344	-197.51711	212.66964	94.58901	-247.78435	244.28238	54.70886	-26.17174	55.61498	671.95343	-296.09636	23.58579	455.61081	-194.94738	89.24246	319.028	-318.57082	70.71959	273.25651	-531.09695	135.67987	307.20304	-550.0565	71.86179	111.74354	-469.3388
106	3.51	290.34216	1671.36627	-77.70791	105.69556	1673.57788	-87.23094	304.05996	1636.26297	-201.46488	101.19863	1650.82886	-200.7288	260.98408	1402.58179	-82.82843	138.82782	1399.42337	-82.50571	268.95588	1469.66522	-225.61001	115.06146	1469.3396	-215.74772	187.93688	1314.17221	-308.99221	207.88626	1334.30847	-47.86554	206.60631	1231.82327	-29.82164	390.33112	1414.25873	-163.5181	446.11786	1188.27591	-185.76527	462.03087	1108.37013	-233.76223	485.90191	992.96951	-196.68423	437.08202	875.99899	-105.32956	470.57182	859.71786	-177.72551	488.10963	822.88315	-116.40062	9.49303	1403.87451	-136.27726	-57.58006	1231.56761	-174.40891	-80.06413	1114.16054	-179.21915	-92.84289	979.04869	-138.8784	-22.34828	881.64284	-39.62548	-94.7585	864.08432	-82.08822	-79.85374	834.04366	-14.57553	311.38081	956.62544	-85.72224	77.18342	947.11555	-82.81975	247.54131	998.06984	-303.06858	103.68134	989.59732	-299.60978	293.94587	716.6481	-270.74997	315.42908	486.44585	-129.26549	278.76537	290.57764	-115.3388	268.38589	102.89574	-197.57917	212.61335	95.94064	-247.35785	245.45427	54.21127	-26.17156	55.52173	677.11029	-229.03479	24.73829	471.33808	-106.78041	89.83085	322.36938	-216.0854	76.69767	255.02295	-427.00005	143.80754	287.70096	-445.81612	75.87117	106.31438	-341.05953
107	3.543	290.51956	1673.0719	-30.32951	106.18164	1674.31137	-40.84185	304.96029	1638.43369	-154.47663	101.86172	1651.9812	-153.9248	261.20628	1405.50125	-36.47088	139.31182	1400.90775	-38.05299	271.58102	1472.62863	-178.85845	118.01552	1470.84824	-170.79653	193.41471	1316.59332	-263.74399	208.56789	1336.3504	-2.65514	208.18241	1233.82698	14.99329	391.88343	1418.83972	-114.05445	451.71398	1193.88916	-131.0845	469.95316	1112.91969	-176.49855	491.14105	998.9167	-129.92086	438.33622	890.4673	-30.61792	473.38173	867.95258	-100.5203	488.8641	836.66344	-35.61002	9.78625	1405.51666	-94.7014	-55.49508	1234.09126	-142.34963	-76.62209	1116.68465	-153.19931	-90.73034	979.34113	-122.09468	-24.251	875.79559	-26.03085	-94.40023	860.80406	-72.76577	-83.2313	826.58493	-7.09999	318.89881	957.23923	-42.5457	84.3346	952.12593	-37.18902	247.92908	999.80835	-259.26655	104.94848	990.71701	-254.31705	290.78974	724.13948	-240.21772	320.13664	484.92149	-123.17945	281.49469	289.48458	-112.57048	267.92229	103.42413	-197.70805	211.28021	97.08101	-246.3549	247.24575	53.91426	-26.3904	49.57691	679.16672	-168.52526	28.54071	482.425	-23.47484	93.43568	319.73999	-111.27191	79.93363	221.65739	-309.46098	147.83235	251.40772	-335.05642	83.82523	93.11082	-197.17245
108	3.577	290.17464	1670.98709	17.08752	105.93256	1671.09573	6.04074	305.23659	1637.0665	-107.14517	102.06419	1649.31595	-107.15626	261.50455	1404.26025	9.97676	140.01849	1398.02963	6.70724	273.61309	1471.7482	-132.40024	120.17488	1468.23227	-125.43299	198.17709	1315.00259	-218.10986	209.14845	1334.27399	42.56135	209.49934	1231.73225	59.91468	393.08453	1419.74854	-65.38247	457.19322	1195.89401	-76.42956	477.3708	1113.81111	-118.90131	496.20148	1002.21428	-63.46341	439.7031	903.26782	43.43693	475.59387	874.26025	-24.02377	489.66106	848.55934	43.72554	10.44964	1402.16232	-51.84169	-53.42852	1232.63374	-108.89918	-73.85708	1115.83046	-126.16664	-89.37519	977.22328	-103.28604	-26.99171	868.30048	-10.43687	-94.35894	855.72823	-61.03305	-86.2718	817.30621	2.39729	324.97276	953.0645	0.25686	90.40306	952.5914	8.33509	248.56966	996.3195	-216.11202	105.85341	987.19048	-208.85553	288.39138	729.30832	-208.69646	321.65852	482.78526	-115.69047	283.49146	288.17232	-109.36514	266.03897	104.02522	-197.21874	209.37548	98.94024	-245.3853	248.02889	53.38708	-26.00239	42.5633	678.49266	-107.49438	36.09681	488.07682	54.87664	100.33579	312.94041	-6.39455	82.7918	177.84185	-181.42763	149.4502	202.75803	-214.41923	90.49712	78.24186	-44.51972
109	3.61	289.52618	1665.4808	64.7024	105.28271	1664.45343	53.09309	305.19787	1632.17316	-59.57985	101.98265	1643.05588	-60.21266	261.95827	1398.69659	56.70426	140.57604	1390.91995	51.74506	275.51575	1466.96945	-86.4107	121.84259	1461.82358	-79.90972	202.26057	1309.59747	-172.40492	209.56213	1327.87994	88.08055	210.59511	1225.50003	105.08218	393.89458	1416.26678	-17.04481	462.08893	1193.88809	-21.96674	484.538	1110.91965	-61.29713	500.63183	1002.73033	2.97969	440.77496	913.52264	115.76766	477.11308	878.53699	51.90679	489.96178	858.2695	121.57329	11.57604	1394.18945	-8.39936	-51.12565	1227.14134	-73.54922	-71.48116	1111.46523	-96.26856	-88.41038	972.25632	-81.2068	-29.16231	858.04153	7.15985	-95.0956	848.62473	-45.82577	-88.8353	806.59264	15.56493	328.7772	945.46165	43.79403	94.74207	949.70062	55.01806	248.98424	990.25238	-171.92759	106.489	981.80519	-162.4551	288.85584	731.62964	-177.18714	321.98952	480.2705	-103.14669	283.41486	286.64576	-103.37687	264.24713	105.09001	-196.0372	207.11967	100.84024	-243.11672	248.43563	52.71711	-25.46117	38.84067	676.64871	-46.75798	43.74269	489.80648	123.44779	106.60808	304.55694	96.55459	83.23177	130.6342	-41.02532	151.11783	150.11189	-81.41735	91.72048	69.2312	113.41536
